<svg width="38" height="32" viewBox="0 0 38 32" fill="none" xmlns="http://www.w3.org/2000/svg">
<path d="M25.3333 6.4C25.3333 8.09739 24.6661 9.72525 23.4783 10.9255C22.2906 12.1257 20.6797 12.8 19 12.8C17.3203 12.8 15.7094 12.1257 14.5217 10.9255C13.3339 9.72525 12.6667 8.09739 12.6667 6.4C12.6667 4.70261 13.3339 3.07475 14.5217 1.87452C15.7094 0.674284 17.3203 0 19 0C20.6797 0 22.2906 0.674284 23.4783 1.87452C24.6661 3.07475 25.3333 4.70261 25.3333 6.4ZM35.8889 10.6667C35.8889 11.7983 35.444 12.8835 34.6522 13.6837C33.8604 14.4838 32.7865 14.9333 31.6667 14.9333C30.5469 14.9333 29.4729 14.4838 28.6811 13.6837C27.8893 12.8835 27.4444 11.7983 27.4444 10.6667C27.4444 9.53508 27.8893 8.44983 28.6811 7.64968C29.4729 6.84952 30.5469 6.4 31.6667 6.4C32.7865 6.4 33.8604 6.84952 34.6522 7.64968C35.444 8.44983 35.8889 9.53508 35.8889 10.6667ZM27.4444 25.6C27.4444 23.3368 26.5548 21.1663 24.9711 19.566C23.3875 17.9657 21.2396 17.0667 19 17.0667C16.7604 17.0667 14.6125 17.9657 13.0289 19.566C11.4452 21.1663 10.5556 23.3368 10.5556 25.6V32H27.4444V25.6ZM10.5556 10.6667C10.5556 11.7983 10.1107 12.8835 9.3189 13.6837C8.52708 14.4838 7.45314 14.9333 6.33333 14.9333C5.21353 14.9333 4.13959 14.4838 3.34777 13.6837C2.55595 12.8835 2.11111 11.7983 2.11111 10.6667C2.11111 9.53508 2.55595 8.44983 3.34777 7.64968C4.13959 6.84952 5.21353 6.4 6.33333 6.4C7.45314 6.4 8.52708 6.84952 9.3189 7.64968C10.1107 8.44983 10.5556 9.53508 10.5556 10.6667ZM31.6667 32V25.6C31.6671 23.4313 31.1223 21.2981 30.0833 19.4005C31.0193 19.1585 31.9976 19.1357 32.9436 19.3338C33.8896 19.5319 34.7783 19.9458 35.542 20.5438C36.3057 21.1418 36.9241 21.9082 37.35 22.7845C37.776 23.6607 37.9983 24.6237 38 25.6V32H31.6667ZM7.91667 19.4005C6.8777 21.2981 6.33288 23.4313 6.33333 25.6V32H5.60965e-07V25.6C-0.000406321 24.623 0.220534 23.6589 0.645888 22.7816C1.07124 21.9042 1.68972 21.1369 2.45392 20.5385C3.21812 19.9401 4.10776 19.5264 5.05465 19.3291C6.00155 19.1319 6.98056 19.1563 7.91667 19.4005Z" fill="black"/>
</svg>
