<svg width="130" height="76" viewBox="0 0 130 76" fill="none" xmlns="http://www.w3.org/2000/svg">
<path d="M48.0848 57.2695C47.0862 60.8005 42.7827 62.0559 40.0463 59.7297L39.7867 59.493L16.3067 36.6531C13.5257 33.9479 14.7521 29.2434 18.4997 28.2393L50.8931 19.5595C54.5235 18.5867 57.8406 21.804 57.0845 25.4002L56.9991 25.7496L48.0848 57.2695Z" fill="white" stroke="black" stroke-width="2"/>
<path d="M45.9885 50.1597C44.9899 53.6907 40.6865 54.9461 37.95 52.62L37.6904 52.3832L23.3801 38.4622C20.5993 35.757 21.8248 31.0529 25.5721 30.0486L45.316 24.7583C48.9464 23.7857 52.2638 27.0038 51.5077 30.5999L51.4212 30.9487L45.9885 50.1597Z" fill="white" stroke="black" stroke-width="2"/>
<path d="M63.4538 29.2727H67.8153L72.4219 40.5114H72.6179L77.2244 29.2727H81.5859V46H78.1555V35.1126H78.0167L73.6879 45.9183H71.3519L67.0231 35.0717H66.8842V46H63.4538V29.2727ZM87.3829 46H83.5931L89.3676 29.2727H93.9252L99.6915 46H95.9017L91.7117 33.0952H91.5811L87.3829 46ZM87.146 39.4251H96.0977V42.1857H87.146V39.4251ZM101.525 46V43.9009L109.872 32.1886H101.509V29.2727H114.316V31.3718L105.96 43.0842H114.332V46H101.525ZM117.046 46V29.2727H128.317V32.1886H120.582V36.1744H127.737V39.0902H120.582V43.0842H128.35V46H117.046Z" fill="black"/>
</svg>
