<svg width="30" height="30" viewBox="0 0 30 30" fill="none" xmlns="http://www.w3.org/2000/svg">
<path d="M15 16.875C17.2378 16.875 19.3839 15.9861 20.9662 14.4037C22.5486 12.8214 23.4375 10.6753 23.4375 8.4375C23.4375 6.19974 22.5486 4.05362 20.9662 2.47129C19.3839 0.888948 17.2378 0 15 0C12.7622 0 10.6161 0.888948 9.03379 2.47129C7.45145 4.05362 6.5625 6.19974 6.5625 8.4375C6.5625 10.6753 7.45145 12.8214 9.03379 14.4037C10.6161 15.9861 12.7622 16.875 15 16.875ZM9.45117 18.75C4.23047 18.75 0 22.9805 0 28.2012C0 29.1973 0.808594 30 1.79883 30H28.2012C29.1973 30 30 29.1914 30 28.2012C30 22.9805 25.7695 18.75 20.5488 18.75H9.45117Z" fill="black"/>
</svg>
