<svg width="26" height="35" viewBox="0 0 26 35" fill="none" xmlns="http://www.w3.org/2000/svg">
<path d="M13 35C20.1803 35 26 30.625 26 22.9688C26 19.6875 24.9167 14.2188 20.5833 9.84375C21.125 13.125 17.875 14.2188 17.875 14.2188C19.5 8.75 15.1667 1.09375 8.66667 0C9.44017 4.375 9.75 8.75 4.33333 13.125C1.625 15.3125 0 19.0947 0 22.9688C0 30.625 5.81967 35 13 35ZM13 32.8125C9.40983 32.8125 6.5 30.625 6.5 26.7969C6.5 25.1562 7.04167 22.4219 9.20833 20.2344C8.9375 21.875 10.8333 22.9688 10.8333 22.9688C10.0208 20.2344 11.9167 15.8594 15.1667 15.3125C14.7788 17.5 14.625 19.6875 17.3333 21.875C18.6875 22.9688 19.5 24.8587 19.5 26.7969C19.5 30.625 16.5902 32.8125 13 32.8125Z" fill="currentColor"/>
</svg>
