<svg width="29" height="30" viewBox="0 0 29 30" fill="none" xmlns="http://www.w3.org/2000/svg">
<path d="M2.9 23.2001H5.8V29.1175L13.1965 23.2001H20.3C21.8994 23.2001 23.2 21.8994 23.2 20.3V8.70005C23.2 7.1007 21.8994 5.80005 20.3 5.80005H2.9C1.30065 5.80005 0 7.1007 0 8.70005V20.3C0 21.8994 1.30065 23.2001 2.9 23.2001Z" fill="currentColor"/>
<path d="M26.1 0H8.7C7.10065 0 5.8 1.30065 5.8 2.9H23.2C24.7994 2.9 26.1 4.20065 26.1 5.8V17.4C27.6994 17.4 29 16.0993 29 14.5V2.9C29 1.30065 27.6994 0 26.1 0Z" fill="currentColor"/>
</svg>
